<svg version="1.0" xmlns="http://www.w3.org/2000/svg" viewBox="0 0 416.000000 416.000000">
  <circle cx="208" cy="208" r="208" fill="#fff" />
  <g transform="translate(0.000000,416.000000) scale(0.100000,-0.100000)" fill="#000000" stroke="none">
    <path d="M2044 3712 c-6 -4 -16 -17 -23 -29 -16 -32 -16 -3171 1 -3208 21 -46
95 -46 116 0 17 37 17 3176 1 3208 -15 29 -28 37 -59 37 -14 0 -30 -4 -36 -8z" />
    <path d="M2800 3376 c-136 -36 -207 -188 -149 -316 27 -60 54 -88 114 -116 85
-40 174 -28 245 34 57 48 82 101 81 174 0 108 -63 193 -165 223 -58 18 -66 18
-126 1z" />
    <path d="M1204 3332 c-81 -38 -133 -136 -120 -225 25 -166 228 -244 352 -135
57 50 77 99 72 178 -4 77 -32 128 -94 170 -50 33 -151 39 -210 12z" />
    <path d="M967 2856 c-89 -24 -127 -82 -127 -194 0 -64 4 -78 61 -193 33 -68
119 -236 191 -372 141 -266 156 -286 219 -272 33 8 69 48 69 79 0 30 -57 145
-226 456 -79 147 -144 273 -144 282 0 22 27 30 44 13 7 -8 62 -105 121 -215
141 -265 126 -265 253 13 84 183 98 207 119 207 15 0 23 -6 23 -17 0 -10 -52
-131 -116 -269 l-116 -251 44 -87 44 -88 94 198 c51 110 117 247 147 305 66
133 83 180 83 236 0 89 -51 152 -140 172 -67 16 -583 13 -643 -3z" />
    <path d="M2465 2855 c-50 -18 -91 -62 -105 -114 -7 -27 -10 -190 -8 -485 l3
-446 26 -26 c52 -51 139 -27 167 47 9 26 11 116 6 385 -4 193 -3 360 0 372 8
25 41 29 50 6 3 -9 6 -181 6 -384 0 -413 6 -475 66 -645 62 -176 62 -178 -1
-435 -66 -268 -68 -306 -22 -356 62 -68 159 -54 197 29 25 54 113 462 118 547
3 52 -5 101 -41 243 l-45 179 -52 46 c-45 41 -53 53 -57 93 -5 44 3 62 163
378 143 282 172 331 189 329 11 -2 21 -10 23 -19 2 -9 -69 -161 -158 -339 -89
-180 -160 -334 -160 -350 0 -41 32 -64 90 -64 39 0 55 6 76 25 37 34 371 704
379 762 13 83 -31 169 -108 210 -41 21 -50 22 -402 24 -292 2 -368 0 -400 -12z" />
    <path d="M887 1882 c-48 -169 -87 -317 -87 -329 0 -23 2 -23 135 -23 l135 0 0
-369 0 -370 24 -28 c22 -25 31 -28 86 -28 55 0 64 3 86 28 l24 28 0 355 0 355
23 -3 c20 -3 23 -10 29 -87 7 -82 10 -91 127 -327 78 -156 130 -249 147 -263
54 -42 107 -39 155 9 23 23 29 37 29 72 0 45 -5 55 -113 241 -84 144 -111 214
-126 325 l-8 52 56 0 c31 0 86 3 124 7 62 5 67 8 67 30 0 19 -186 622 -194
631 -2 1 -44 -78 -95 -175 -105 -204 -138 -243 -201 -243 -46 0 -85 17 -116
52 -12 12 -63 97 -113 188 -51 91 -95 168 -99 172 -4 4 -47 -131 -95 -300z" />
    <path d="M3115 1938 c-60 -110 -101 -158 -135 -158 -38 0 -42 -23 -21 -112 11
-47 27 -136 37 -199 19 -134 16 -171 -47 -451 -22 -98 -39 -194 -37 -215 8
-102 177 -110 237 -12 17 28 19 75 26 640 4 336 6 612 4 613 -2 2 -31 -46 -64
-106z" />
  </g>
</svg>